<svg width="232" height="48" viewBox="0 0 232 48" fill="none" xmlns="http://www.w3.org/2000/svg">
<g clip-path="url(#clip0_1_3559)">
<path d="M14.9382 1.11844C13.7513 5.51543 12.5643 9.91242 11.3774 14.3094C12.1744 14.0795 13.8739 13.7032 15.9464 14.1698C17.8741 14.604 19.1854 15.5543 19.8155 16.0822C20.2514 13.0833 20.8389 10.035 21.5984 6.95101C21.641 6.77901 21.6836 6.60701 21.7261 6.43672H22.879C23.3695 8.40532 23.8616 10.3756 24.3521 12.3442H24.3504C24.3538 12.3578 24.3589 12.3732 24.3623 12.3851C24.679 13.6589 24.9975 14.931 25.3142 16.2048C25.7025 18.3437 25.9035 20.7942 25.6668 23.4321C24.3129 22.3762 22.7939 21.5094 20.9513 20.8708C18.2709 19.9427 12.9867 18.7898 7.70585 21.4873C6.79137 21.9539 4.00536 23.3776 2.0623 26.5161C-0.790121 31.1242 -0.672619 37.1867 2.35521 41.6024C5.22466 45.7866 9.96905 47.4418 14.3371 47.4418C15.8885 47.4418 17.3939 47.2323 18.7477 46.8543C23.5636 45.509 26.6562 41.9703 28.6673 38.326C30.1608 40.6505 31.467 43.1249 32.5705 45.7218L32.6761 45.6776C32.6982 45.7695 32.722 45.8598 32.7442 45.9517H41.4547L29.6687 1.11844H14.9382ZM16.7757 39.8007C14.5772 40.4155 10.359 40.3235 8.39724 37.4609C7.02808 35.465 6.9838 32.4832 8.29166 30.3715C9.15845 28.97 10.4288 28.3212 11.0385 28.0096C12.3089 27.3607 13.6219 27.1377 14.8275 27.1377C16.338 27.1377 17.68 27.4885 18.557 27.7916C20.5375 28.4779 21.8794 29.612 23.6607 31.6964C22.4261 35.0086 20.3468 38.8011 16.7757 39.799V39.8007Z" fill="white"/>
<path d="M68.9808 14.1272C66.8487 16.1452 64.2756 19.0231 62.0107 22.8922C58.0224 29.7091 56.9751 36.2143 56.6737 40.0596H55.5208L48.1556 14.1834H39.5728L49.6916 45.9517C54.4973 45.9739 59.303 45.996 64.1087 46.0181C63.9299 42.6089 64.0644 36.5106 66.859 29.6529C68.4478 25.7549 70.4981 22.601 72.5144 20.113V45.8972H80.5847V14.1289H78.5616C75.3685 14.1289 72.1738 14.1289 68.9808 14.1289V14.1272Z" fill="white"/>
<path d="M76.5487 10.4148C78.0422 10.4148 79.2802 9.94479 80.2628 9.00647C81.2437 8.06815 81.7359 6.82841 81.7359 5.29236C81.7359 3.75631 81.2437 2.51657 80.2628 1.57825C79.2802 0.639927 78.0422 0.168213 76.5487 0.168213C75.0552 0.168213 73.8683 0.638224 72.8653 1.57825C71.8622 2.51827 71.3599 3.75631 71.3599 5.29236C71.3599 6.82841 71.8622 8.06815 72.8653 9.00647C73.8683 9.94649 75.0961 10.4148 76.5487 10.4148Z" fill="white"/>
<path d="M107.415 28.1152C105.472 27.4101 103.304 26.8448 100.914 26.4173L99.1213 26.0972C97.6687 25.8417 96.5158 25.4671 95.6626 24.9766C94.8077 24.4862 94.382 23.7284 94.382 22.7032C94.382 21.7649 94.7873 21.0275 95.5979 20.4928C96.4085 19.9598 97.5835 19.6924 99.1213 19.6924C100.659 19.6924 101.95 20.0347 102.995 20.7176C104.041 21.4005 104.734 22.5534 105.076 24.1763L112.569 21.8705C111.842 19.3093 110.306 17.2385 107.958 15.6582C105.609 14.0795 102.663 13.2877 99.1196 13.2877C95.3612 13.2877 92.3299 14.1306 90.0242 15.8182C87.7184 17.5058 86.5655 19.9291 86.5655 23.0881C86.5655 25.181 87.1206 26.889 88.231 28.2122C89.3413 29.5354 90.8143 30.5725 92.6501 31.3184C94.4859 32.066 96.5141 32.6535 98.7347 33.0792L100.528 33.3994C102.406 33.7417 103.772 34.1793 104.627 34.7123C105.48 35.2471 105.907 36.0049 105.907 36.9858C105.907 37.9667 105.46 38.7909 104.562 39.4516C103.665 40.1141 102.279 40.4444 100.4 40.4444C99.1604 40.4444 98.0195 40.2639 96.9739 39.8995C95.9283 39.5368 95.0529 38.9288 94.3479 38.0739C93.6429 37.2208 93.1405 36.0457 92.8425 34.5523L85.4126 36.4732C85.9678 39.8041 87.5685 42.3654 90.2166 44.1586C92.8647 45.9517 96.2586 46.8492 100.4 46.8492C104.542 46.8492 107.69 45.9432 110.104 44.1279C112.515 42.3143 113.722 39.7411 113.722 36.4102C113.722 34.1912 113.157 32.4287 112.024 31.126C110.892 29.8232 109.356 28.8202 107.413 28.1152H107.415Z" fill="white"/>
<path d="M141.969 15.3687C140.111 14.2379 137.943 13.6708 135.469 13.6708C133.589 13.6708 132.043 13.8956 130.825 14.3435C129.607 14.7914 128.637 15.3585 127.911 16.0413C127.184 16.7242 126.651 17.4088 126.311 18.09H125.158V1.11847H117.087V45.9518H125.158V29.8113C125.158 26.8652 125.841 24.5697 127.206 22.9263C128.572 21.283 130.493 20.4605 132.971 20.4605C135.149 20.4605 136.824 21.0599 137.998 22.2537C139.171 23.4491 139.759 25.2423 139.759 27.6332V45.9518H147.829V26.9929C147.829 24.3466 147.316 22.0289 146.291 20.0432C145.266 18.0576 143.825 16.4994 141.967 15.367L141.969 15.3687Z" fill="white"/>
<path d="M210.078 28.5171C216.708 22.286 217.225 14.197 217.225 11.8674L209.377 11.8623C209.377 13.4001 209.036 18.7217 204.699 22.7969C203.694 23.7386 202.643 24.4658 201.601 25.0209C200.429 25.6442 199.278 26.0512 198.241 26.3186C198.241 25.7583 198.241 25.198 198.246 24.6446C198.241 24.0996 198.246 23.5564 198.246 23.0114C198.267 19.265 198.304 15.5236 198.304 11.784V1.05374H190.235V17.0614C188.446 29.1557 182.284 38.469 174.763 40.109C172.544 40.5926 170.153 40.6743 167.917 40.2861C164.565 39.702 161.028 37.3127 160.65 33.6616C160.609 33.258 160.577 32.8442 160.562 32.4389H182.637V29.6853C182.637 26.4412 181.997 23.5904 180.716 21.1348C178.061 16.0447 172.43 12.913 166.714 13.3268C161.592 13.6981 156.814 16.4364 154.351 21.0071C152.245 24.9153 151.894 29.8385 152.716 34.147C153.256 36.9739 154.412 39.6509 156.356 41.8C157.233 42.769 158.181 43.6596 159.235 44.4327C160.856 45.6231 162.702 46.4967 164.637 47.0382C166.633 47.5968 168.71 47.8335 170.781 47.8335C173.422 47.8335 175.517 47.4418 176.324 47.2647C181.733 46.0863 186.528 42.5152 190.235 37.2838V45.8887H198.304C198.304 42.0333 198.278 38.1812 198.261 34.3309C199.173 34.1742 200.193 33.9392 201.276 33.6037C202.672 34.1895 204.149 35.0853 205.504 36.4493C209.203 40.1856 209.402 44.8261 209.377 46.1544L217.22 46.3162C217.268 44.2079 216.953 36.8512 211.083 30.9233C210.482 30.312 209.864 29.7619 209.235 29.2646C209.503 29.045 209.758 28.81 210.02 28.5681C210.041 28.5528 210.056 28.5307 210.078 28.5153V28.5171ZM162.997 21.9982C166.507 18.955 172.399 20.2544 174.039 24.6769C174.09 24.8149 174.502 26.4173 174.439 26.4173H160.626C160.924 24.5816 161.715 23.1085 162.997 21.9982Z" fill="white"/>
<path d="M226.59 35.2641H226.588C223.6 35.2641 221.178 37.6863 221.178 40.6743V40.676C221.178 43.664 223.6 46.0863 226.588 46.0863H226.59C229.578 46.0863 232 43.664 232 40.676V40.6743C232 37.6863 229.578 35.2641 226.59 35.2641Z" fill="white"/>
</g>
<defs>
<clipPath id="clip0_1_3559">
<rect width="232" height="47.667" fill="white" transform="translate(0 0.166504)"/>
</clipPath>
</defs>
</svg>
