<svg width="46" height="88" viewBox="0 0 46 88" fill="none" xmlns="http://www.w3.org/2000/svg">
<path d="M24.5 19C24.5 18.1716 23.8284 17.5 23 17.5C22.1716 17.5 21.5 18.1716 21.5 19L24.5 19ZM21.9393 69.5802C22.5251 70.166 23.4749 70.166 24.0607 69.5802L33.6066 60.0342C34.1924 59.4485 34.1924 58.4987 33.6066 57.9129C33.0208 57.3271 32.0711 57.3271 31.4853 57.9129L23 66.3982L14.5147 57.9129C13.9289 57.3271 12.9792 57.3271 12.3934 57.9129C11.8076 58.4987 11.8076 59.4485 12.3934 60.0343L21.9393 69.5802ZM21.5 19L21.5 68.5195L24.5 68.5195L24.5 19L21.5 19Z" fill="black"/>
<rect x="1.5" y="1.5" width="43" height="84.5195" rx="21.5" stroke="black" stroke-width="3"/>
</svg>
